<?xml version="1.0" encoding="UTF-8" standalone="no"?><svg xmlns="http://www.w3.org/2000/svg" xmlns:xlink="http://www.w3.org/1999/xlink" contentScriptType="application/ecmascript" contentStyleType="text/css" height="357px" preserveAspectRatio="none" style="width:757px;height:357px;" version="1.1" viewBox="0 0 757 357" width="757px" zoomAndPan="magnify"><defs><filter height="300%" id="f1lh6drxhzu4pk" width="300%" x="-1" y="-1"><feGaussianBlur result="blurOut" stdDeviation="2.0"/><feColorMatrix in="blurOut" result="blurOut2" type="matrix" values="0 0 0 0 0 0 0 0 0 0 0 0 0 0 0 0 0 0 .4 0"/><feOffset dx="4.0" dy="4.0" in="blurOut2" result="blurOut3"/><feBlend in="SourceGraphic" in2="blurOut3" mode="normal"/></filter></defs><g><line style="stroke: #A80036; stroke-width: 1.0;" x1="49" x2="49" y1="38.2969" y2="77.4297"/><line style="stroke: #A80036; stroke-width: 1.0; stroke-dasharray: 1.0,4.0;" x1="49" x2="49" y1="77.4297" y2="105.4297"/><line style="stroke: #A80036; stroke-width: 1.0;" x1="49" x2="49" y1="105.4297" y2="134.5625"/><line style="stroke: #A80036; stroke-width: 1.0; stroke-dasharray: 1.0,4.0;" x1="49" x2="49" y1="134.5625" y2="162.5625"/><line style="stroke: #A80036; stroke-width: 1.0;" x1="49" x2="49" y1="162.5625" y2="191.6953"/><line style="stroke: #A80036; stroke-width: 1.0; stroke-dasharray: 1.0,4.0;" x1="49" x2="49" y1="191.6953" y2="219.6953"/><line style="stroke: #A80036; stroke-width: 1.0;" x1="49" x2="49" y1="219.6953" y2="258.8281"/><line style="stroke: #A80036; stroke-width: 1.0; stroke-dasharray: 1.0,4.0;" x1="49" x2="49" y1="258.8281" y2="286.8281"/><line style="stroke: #A80036; stroke-width: 1.0;" x1="49" x2="49" y1="286.8281" y2="296.8281"/><line style="stroke: #A80036; stroke-width: 1.0;" x1="473" x2="473" y1="38.2969" y2="77.4297"/><line style="stroke: #A80036; stroke-width: 1.0; stroke-dasharray: 1.0,4.0;" x1="473" x2="473" y1="77.4297" y2="105.4297"/><line style="stroke: #A80036; stroke-width: 1.0;" x1="473" x2="473" y1="105.4297" y2="134.5625"/><line style="stroke: #A80036; stroke-width: 1.0; stroke-dasharray: 1.0,4.0;" x1="473" x2="473" y1="134.5625" y2="162.5625"/><line style="stroke: #A80036; stroke-width: 1.0;" x1="473" x2="473" y1="162.5625" y2="191.6953"/><line style="stroke: #A80036; stroke-width: 1.0; stroke-dasharray: 1.0,4.0;" x1="473" x2="473" y1="191.6953" y2="219.6953"/><line style="stroke: #A80036; stroke-width: 1.0;" x1="473" x2="473" y1="219.6953" y2="258.8281"/><line style="stroke: #A80036; stroke-width: 1.0; stroke-dasharray: 1.0,4.0;" x1="473" x2="473" y1="258.8281" y2="286.8281"/><line style="stroke: #A80036; stroke-width: 1.0;" x1="473" x2="473" y1="286.8281" y2="296.8281"/><rect fill="#FEFECE" filter="url(#f1lh6drxhzu4pk)" height="30.2969" style="stroke: #A80036; stroke-width: 1.5;" width="78" x="8" y="3"/><text fill="#000000" font-family="sans-serif" font-size="14" lengthAdjust="spacingAndGlyphs" textLength="64" x="15" y="22.9951">SDI client</text><rect fill="#FEFECE" filter="url(#f1lh6drxhzu4pk)" height="30.2969" style="stroke: #A80036; stroke-width: 1.5;" width="78" x="8" y="295.8281"/><text fill="#000000" font-family="sans-serif" font-size="14" lengthAdjust="spacingAndGlyphs" textLength="64" x="15" y="315.8232">SDI client</text><rect fill="#FEFECE" filter="url(#f1lh6drxhzu4pk)" height="30.2969" style="stroke: #A80036; stroke-width: 1.5;" width="84" x="429" y="3"/><text fill="#000000" font-family="sans-serif" font-size="14" lengthAdjust="spacingAndGlyphs" textLength="70" x="436" y="22.9951">SDI server</text><rect fill="#FEFECE" filter="url(#f1lh6drxhzu4pk)" height="30.2969" style="stroke: #A80036; stroke-width: 1.5;" width="84" x="429" y="295.8281"/><text fill="#000000" font-family="sans-serif" font-size="14" lengthAdjust="spacingAndGlyphs" textLength="70" x="436" y="315.8232">SDI server</text><polygon fill="#A80036" points="461,65.4297,471,69.4297,461,73.4297,465,69.4297" style="stroke: #A80036; stroke-width: 1.0;"/><line style="stroke: #A80036; stroke-width: 1.0;" x1="49" x2="467" y1="69.4297" y2="69.4297"/><text fill="#000000" font-family="sans-serif" font-size="13" lengthAdjust="spacingAndGlyphs" textLength="168" x="56" y="64.3638">message ID=X, command</text><polygon fill="#A80036" points="461,122.5625,471,126.5625,461,130.5625,465,126.5625" style="stroke: #A80036; stroke-width: 1.0;"/><line style="stroke: #A80036; stroke-width: 1.0;" x1="49" x2="467" y1="126.5625" y2="126.5625"/><text fill="#000000" font-family="sans-serif" font-size="13" lengthAdjust="spacingAndGlyphs" textLength="178" x="56" y="121.4966">message ID=X, abort 20-02</text><polygon fill="#A80036" points="60,179.6953,50,183.6953,60,187.6953,56,183.6953" style="stroke: #A80036; stroke-width: 1.0;"/><line style="stroke: #A80036; stroke-width: 1.0; stroke-dasharray: 2.0,2.0;" x1="54" x2="472" y1="183.6953" y2="183.6953"/><text fill="#000000" font-family="sans-serif" font-size="13" lengthAdjust="spacingAndGlyphs" textLength="400" x="66" y="178.6294">message ID=X, command response (result: 65-00 "cancelled")</text><polygon fill="#A80036" points="461,241.8281,471,245.8281,461,249.8281,465,245.8281" style="stroke: #A80036; stroke-width: 1.0;"/><line style="stroke: #A80036; stroke-width: 1.0;" x1="49" x2="467" y1="245.8281" y2="245.8281"/><text fill="#000000" font-family="sans-serif" font-size="13" lengthAdjust="spacingAndGlyphs" textLength="177" x="56" y="240.7622">message ID=Y, abort 20-02</text><path d="M478,224.6953 L478,249.6953 L745,249.6953 L745,234.6953 L735,224.6953 L478,224.6953 " fill="#FBFB77" filter="url(#f1lh6drxhzu4pk)" style="stroke: #A80036; stroke-width: 1.0;"/><path d="M735,224.6953 L735,234.6953 L745,234.6953 L735,224.6953 " fill="#FBFB77" style="stroke: #A80036; stroke-width: 1.0;"/><text fill="#000000" font-family="sans-serif" font-size="13" lengthAdjust="spacingAndGlyphs" textLength="246" x="484" y="241.7622">ignored (no command with ID Y active)</text><text fill="#888888" font-family="sans-serif" font-size="10" lengthAdjust="spacingAndGlyphs" textLength="174" x="294" y="344.4072">message ID sequence: X=n, Y=n+1</text><!--
@startuml
participant "SDI client" order 10
participant "SDI server" order 10
footer message ID sequence: X=n, Y=n+1
"SDI client"->"SDI server": message ID=X, command
...
"SDI client"->"SDI server": message ID=X, abort 20-02
...
"SDI client"<- -"SDI server": message ID=X, command response (result: 65-00 "cancelled")
...
"SDI client"->"SDI server": message ID=Y, abort 20-02
note right : ignored (no command with ID Y active)
...
@enduml

PlantUML version 1.2019.03(Sun Mar 10 04:04:44 PDT 2019)
(GPL source distribution)
Java Runtime: OpenJDK Runtime Environment
JVM: OpenJDK 64-Bit Server VM
Java Version: 17.0.15+6-Ubuntu-0ubuntu120.04
Operating System: Linux
OS Version: 5.15.0-1089-azure
Default Encoding: UTF-8
Language: en
Country: US
--></g></svg>