<?xml version="1.0" encoding="UTF-8" standalone="no"?><svg xmlns="http://www.w3.org/2000/svg" xmlns:xlink="http://www.w3.org/1999/xlink" contentScriptType="application/ecmascript" contentStyleType="text/css" height="580px" preserveAspectRatio="none" style="width:408px;height:580px;" version="1.1" viewBox="0 0 408 580" width="408px" zoomAndPan="magnify"><defs><filter height="300%" id="f8mk4hv1g0h8d" width="300%" x="-1" y="-1"><feGaussianBlur result="blurOut" stdDeviation="2.0"/><feColorMatrix in="blurOut" result="blurOut2" type="matrix" values="0 0 0 0 0 0 0 0 0 0 0 0 0 0 0 0 0 0 .4 0"/><feOffset dx="4.0" dy="4.0" in="blurOut2" result="blurOut3"/><feBlend in="SourceGraphic" in2="blurOut3" mode="normal"/></filter></defs><g><line style="stroke: #A80036; stroke-width: 1.0;" x1="49" x2="49" y1="38.2969" y2="77.4297"/><line style="stroke: #A80036; stroke-width: 1.0; stroke-dasharray: 1.0,4.0;" x1="49" x2="49" y1="77.4297" y2="105.4297"/><line style="stroke: #A80036; stroke-width: 1.0;" x1="49" x2="49" y1="105.4297" y2="163.6953"/><line style="stroke: #A80036; stroke-width: 1.0; stroke-dasharray: 1.0,4.0;" x1="49" x2="49" y1="163.6953" y2="191.6953"/><line style="stroke: #A80036; stroke-width: 1.0;" x1="49" x2="49" y1="191.6953" y2="220.8281"/><line style="stroke: #A80036; stroke-width: 1.0; stroke-dasharray: 1.0,4.0;" x1="49" x2="49" y1="220.8281" y2="248.8281"/><line style="stroke: #A80036; stroke-width: 1.0;" x1="49" x2="49" y1="248.8281" y2="452.7578"/><line style="stroke: #A80036; stroke-width: 1.0; stroke-dasharray: 1.0,4.0;" x1="49" x2="49" y1="452.7578" y2="480.7578"/><line style="stroke: #A80036; stroke-width: 1.0;" x1="49" x2="49" y1="480.7578" y2="519.8906"/><line style="stroke: #A80036; stroke-width: 1.0;" x1="357" x2="357" y1="38.2969" y2="77.4297"/><line style="stroke: #A80036; stroke-width: 1.0; stroke-dasharray: 1.0,4.0;" x1="357" x2="357" y1="77.4297" y2="105.4297"/><line style="stroke: #A80036; stroke-width: 1.0;" x1="357" x2="357" y1="105.4297" y2="163.6953"/><line style="stroke: #A80036; stroke-width: 1.0; stroke-dasharray: 1.0,4.0;" x1="357" x2="357" y1="163.6953" y2="191.6953"/><line style="stroke: #A80036; stroke-width: 1.0;" x1="357" x2="357" y1="191.6953" y2="220.8281"/><line style="stroke: #A80036; stroke-width: 1.0; stroke-dasharray: 1.0,4.0;" x1="357" x2="357" y1="220.8281" y2="248.8281"/><line style="stroke: #A80036; stroke-width: 1.0;" x1="357" x2="357" y1="248.8281" y2="452.7578"/><line style="stroke: #A80036; stroke-width: 1.0; stroke-dasharray: 1.0,4.0;" x1="357" x2="357" y1="452.7578" y2="480.7578"/><line style="stroke: #A80036; stroke-width: 1.0;" x1="357" x2="357" y1="480.7578" y2="519.8906"/><rect fill="#FEFECE" filter="url(#f8mk4hv1g0h8d)" height="30.2969" style="stroke: #A80036; stroke-width: 1.5;" width="78" x="8" y="3"/><text fill="#000000" font-family="sans-serif" font-size="14" lengthAdjust="spacingAndGlyphs" textLength="64" x="15" y="22.9951">SDI client</text><rect fill="#FEFECE" filter="url(#f8mk4hv1g0h8d)" height="30.2969" style="stroke: #A80036; stroke-width: 1.5;" width="78" x="8" y="518.8906"/><text fill="#000000" font-family="sans-serif" font-size="14" lengthAdjust="spacingAndGlyphs" textLength="64" x="15" y="538.8857">SDI client</text><rect fill="#FEFECE" filter="url(#f8mk4hv1g0h8d)" height="30.2969" style="stroke: #A80036; stroke-width: 1.5;" width="84" x="313" y="3"/><text fill="#000000" font-family="sans-serif" font-size="14" lengthAdjust="spacingAndGlyphs" textLength="70" x="320" y="22.9951">SDI server</text><rect fill="#FEFECE" filter="url(#f8mk4hv1g0h8d)" height="30.2969" style="stroke: #A80036; stroke-width: 1.5;" width="84" x="313" y="518.8906"/><text fill="#000000" font-family="sans-serif" font-size="14" lengthAdjust="spacingAndGlyphs" textLength="70" x="320" y="538.8857">SDI server</text><polygon fill="#A80036" points="345,65.4297,355,69.4297,345,73.4297,349,69.4297" style="stroke: #A80036; stroke-width: 1.0;"/><line style="stroke: #A80036; stroke-width: 1.0;" x1="49" x2="351" y1="69.4297" y2="69.4297"/><text fill="#000000" font-family="sans-serif" font-size="13" lengthAdjust="spacingAndGlyphs" textLength="168" x="56" y="64.3638">message ID=X, command</text><polygon fill="#A80036" points="60,122.5625,50,126.5625,60,130.5625,56,126.5625" style="stroke: #A80036; stroke-width: 1.0;"/><line style="stroke: #A80036; stroke-width: 1.0; stroke-dasharray: 2.0,2.0;" x1="54" x2="356" y1="126.5625" y2="126.5625"/><text fill="#000000" font-family="sans-serif" font-size="13" lengthAdjust="spacingAndGlyphs" textLength="221" x="66" y="121.4966">message ID=X, command request</text><polygon fill="#A80036" points="345,151.6953,355,155.6953,345,159.6953,349,155.6953" style="stroke: #A80036; stroke-width: 1.0;"/><line style="stroke: #A80036; stroke-width: 1.0; stroke-dasharray: 2.0,2.0;" x1="49" x2="351" y1="155.6953" y2="155.6953"/><text fill="#000000" font-family="sans-serif" font-size="13" lengthAdjust="spacingAndGlyphs" textLength="284" x="56" y="150.6294">message ID=X, command request response</text><polygon fill="#A80036" points="60,208.8281,50,212.8281,60,216.8281,56,212.8281" style="stroke: #A80036; stroke-width: 1.0;"/><line style="stroke: #A80036; stroke-width: 1.0; stroke-dasharray: 2.0,2.0;" x1="54" x2="356" y1="212.8281" y2="212.8281"/><text fill="#000000" font-family="sans-serif" font-size="13" lengthAdjust="spacingAndGlyphs" textLength="223" x="66" y="207.7622">message ID=X, command callback</text><polygon fill="#A80036" points="60,265.9609,50,269.9609,60,273.9609,56,269.9609" style="stroke: #A80036; stroke-width: 1.0;"/><line style="stroke: #A80036; stroke-width: 1.0; stroke-dasharray: 2.0,2.0;" x1="54" x2="356" y1="269.9609" y2="269.9609"/><text fill="#000000" font-family="sans-serif" font-size="13" lengthAdjust="spacingAndGlyphs" textLength="221" x="66" y="264.895">message ID=X, command request</text><polygon fill="#A80036" points="345,295.0938,355,299.0938,345,303.0938,349,299.0938" style="stroke: #A80036; stroke-width: 1.0;"/><line style="stroke: #A80036; stroke-width: 1.0;" x1="49" x2="351" y1="299.0938" y2="299.0938"/><text fill="#000000" font-family="sans-serif" font-size="13" lengthAdjust="spacingAndGlyphs" textLength="215" x="56" y="294.0278">message ID=Y, nested command</text><polygon fill="#A80036" points="60,324.2266,50,328.2266,60,332.2266,56,328.2266" style="stroke: #A80036; stroke-width: 1.0;"/><line style="stroke: #A80036; stroke-width: 1.0; stroke-dasharray: 2.0,2.0;" x1="54" x2="356" y1="328.2266" y2="328.2266"/><text fill="#000000" font-family="sans-serif" font-size="13" lengthAdjust="spacingAndGlyphs" textLength="278" x="66" y="323.1606">message ID=Y, nested command response</text><polygon fill="#A80036" points="345,353.3594,355,357.3594,345,361.3594,349,357.3594" style="stroke: #A80036; stroke-width: 1.0;"/><line style="stroke: #A80036; stroke-width: 1.0;" x1="49" x2="351" y1="357.3594" y2="357.3594"/><text fill="#000000" font-family="sans-serif" font-size="13" lengthAdjust="spacingAndGlyphs" textLength="218" x="56" y="352.2935">message ID=Z, nested command</text><polygon fill="#A80036" points="60,382.4922,50,386.4922,60,390.4922,56,386.4922" style="stroke: #A80036; stroke-width: 1.0;"/><line style="stroke: #A80036; stroke-width: 1.0; stroke-dasharray: 2.0,2.0;" x1="54" x2="356" y1="386.4922" y2="386.4922"/><text fill="#000000" font-family="sans-serif" font-size="13" lengthAdjust="spacingAndGlyphs" textLength="273" x="66" y="381.4263">message ID=Z, nested command callback</text><polygon fill="#A80036" points="60,411.625,50,415.625,60,419.625,56,415.625" style="stroke: #A80036; stroke-width: 1.0;"/><line style="stroke: #A80036; stroke-width: 1.0; stroke-dasharray: 2.0,2.0;" x1="54" x2="356" y1="415.625" y2="415.625"/><text fill="#000000" font-family="sans-serif" font-size="13" lengthAdjust="spacingAndGlyphs" textLength="281" x="66" y="410.5591">message ID=Z, nested command response</text><polygon fill="#A80036" points="345,440.7578,355,444.7578,345,448.7578,349,444.7578" style="stroke: #A80036; stroke-width: 1.0;"/><line style="stroke: #A80036; stroke-width: 1.0; stroke-dasharray: 2.0,2.0;" x1="49" x2="351" y1="444.7578" y2="444.7578"/><text fill="#000000" font-family="sans-serif" font-size="13" lengthAdjust="spacingAndGlyphs" textLength="284" x="56" y="439.6919">message ID=X, command request response</text><polygon fill="#A80036" points="60,497.8906,50,501.8906,60,505.8906,56,501.8906" style="stroke: #A80036; stroke-width: 1.0;"/><line style="stroke: #A80036; stroke-width: 1.0; stroke-dasharray: 2.0,2.0;" x1="54" x2="356" y1="501.8906" y2="501.8906"/><text fill="#000000" font-family="sans-serif" font-size="13" lengthAdjust="spacingAndGlyphs" textLength="231" x="66" y="496.8247">message ID=X, command response</text><text fill="#888888" font-family="sans-serif" font-size="10" lengthAdjust="spacingAndGlyphs" textLength="214" x="97.5" y="567.4697">message ID sequence: X=n, Y=n+1, Z=n+2</text><!--
@startuml
participant "SDI client" order 10
participant "SDI server" order 10
footer message ID sequence: X=n, Y=n+1, Z=n+2
"SDI client"->"SDI server": message ID=X, command
...
"SDI client"<- -"SDI server": message ID=X, command request
"SDI client"- ->"SDI server": message ID=X, command request response
...
"SDI client"<- -"SDI server": message ID=X, command callback
...
"SDI client"<- -"SDI server": message ID=X, command request
"SDI client"->"SDI server": message ID=Y, nested command
"SDI client"<- -"SDI server": message ID=Y, nested command response
"SDI client"->"SDI server": message ID=Z, nested command
"SDI client"<- -"SDI server": message ID=Z, nested command callback
"SDI client"<- -"SDI server": message ID=Z, nested command response
"SDI client"- ->"SDI server": message ID=X, command request response
...
"SDI client"<- -"SDI server": message ID=X, command response
@enduml

PlantUML version 1.2019.03(Sun Mar 10 04:04:44 PDT 2019)
(GPL source distribution)
Java Runtime: OpenJDK Runtime Environment
JVM: OpenJDK 64-Bit Server VM
Java Version: 17.0.14+7-Ubuntu-120.04
Operating System: Linux
OS Version: 5.15.0-1082-azure
Default Encoding: UTF-8
Language: en
Country: US
--></g></svg>